<svg id="Layer_1" data-name="Layer 1" xmlns="http://www.w3.org/2000/svg" viewBox="0 0 32 32" fill="#008EFF"><title>my_queued</title><path d="M13.84,16.36a5.49,5.49,0,0,0,2.22-.47,1.47,1.47,0,0,1-.17-.66V13a1.5,1.5,0,0,1,1.5-1.5H19.3a5.69,5.69,0,0,0,.07-.71,5.53,5.53,0,1,0-5.53,5.53Zm2.88,1.76H10.33A6.33,6.33,0,0,0,4,24.44a4.55,4.55,0,0,0,0,.53h12.6v-.49h0v-1A4,4,0,0,1,18,20.51,4.06,4.06,0,0,1,16.72,18.12Z"/><path d="M27.23,17.56V15.23H28V13H17.39v2.19h.77v2.33a2.75,2.75,0,0,0,1.59,2.38l1.08.57-1.08.57a2.74,2.74,0,0,0-1.59,2.37v2.34h-.77V28H28V25.79h-.77V23.45a2.74,2.74,0,0,0-1.59-2.37l-1.08-.57,1.08-.57A2.75,2.75,0,0,0,27.23,17.56Zm-2.65,4.92a1.13,1.13,0,0,1,.67,1v2.34h-5.1V23.45a1.1,1.1,0,0,1,.66-1l1.89-1Zm.67-6h-5.1V15.23h5.1Z" fill="#999999"/></svg>