<svg id="Layer_1" xmlns="http://www.w3.org/2000/svg" viewBox="0 0 32 32" fill="#c5c5c5"><title>Open_in_Web</title><path d="M16,4.06A12,12,0,1,0,27.94,16,12,12,0,0,0,16,4.06ZM26,15.28H22.86a12.75,12.75,0,0,0-4.54-9A10,10,0,0,1,26,15.28ZM15.41,7v8.33H10.78A11.25,11.25,0,0,1,15.41,7Zm0,9.83v8.33a11.25,11.25,0,0,1-4.63-8.33ZM16.9,25v-8.2h4.44A11.2,11.2,0,0,1,16.9,25Zm0-9.7V7.08a11.21,11.21,0,0,1,4.44,8.2Zm-3-9a12.77,12.77,0,0,0-4.6,9H6A10,10,0,0,1,13.86,6.24ZM6,16.78H9.26a12.77,12.77,0,0,0,4.6,9A10,10,0,0,1,6,16.78Zm12.28,9a12.75,12.75,0,0,0,4.54-9H26A10,10,0,0,1,18.32,25.77Z"/></svg>